<svg width="61" height="53" viewBox="0 0 61 53" fill="none" xmlns="http://www.w3.org/2000/svg">
<g clip-path="url(#clip0_290_903)">
<path d="M38.0275 40.9241C37.8626 40.7541 37.505 41.0257 35.8299 41.5078C35.3253 41.675 34.8031 41.7834 34.2735 41.8311C33.7961 41.8572 33.3172 41.8275 32.8467 41.7424C32.1203 41.6482 31.4113 41.4497 30.7418 41.1531C29.4696 40.5822 28.3872 39.6613 27.6215 38.4986C27.5826 38.4487 27.5474 38.3933 27.5122 38.3379C27.477 38.2825 27.4195 38.1827 27.3751 38.1033C27.3588 38.0812 27.3446 38.0577 27.3324 38.0331C27.3121 37.9888 27.2843 37.9444 27.2639 37.8982C27.2631 37.8965 27.2626 37.8946 27.2626 37.8927C27.2626 37.8908 27.2631 37.8889 27.2639 37.8872L15.3292 17.7778C14.5823 16.5155 13.5929 15.4125 12.4178 14.5319C11.2427 13.6513 9.90485 13.0104 8.48096 12.646C7.05707 12.2815 5.57506 12.2006 4.11978 12.408C2.66449 12.6153 1.26452 13.1067 0 13.8542L20.988 49.2423C21.6322 50.3949 22.5764 51.3529 23.721 52.0151C24.8657 52.6774 26.1684 53.0195 27.4918 53.0052C28.2603 52.9969 29.0232 52.8723 29.7542 52.6358C31.8461 51.9467 33.1098 50.419 33.5842 49.7706C34.0015 49.1495 34.3838 48.5056 34.7293 47.8421C34.9146 47.5077 35.1221 47.1235 35.3574 46.6857C36.3043 44.929 35.9856 45.3483 37.0047 43.3957C37.8589 41.748 38.2424 41.1476 38.0275 40.9241ZM33.9177 49.1149L33.9789 49.0114C33.9564 49.0447 33.936 49.0792 33.9177 49.1149Z" fill="#007AFF"/>
<path d="M33.9715 49.0059L33.9177 49.113L33.9715 49.0059Z" fill="url(#paint0_linear_290_903)"/>
<path d="M27.6178 38.4911C27.5789 38.4394 27.5437 38.3858 27.5085 38.3304C27.4733 38.275 27.4158 38.1752 27.3695 38.0958L27.3287 38.0256C27.3065 37.9812 27.2805 37.9369 27.2602 37.8926L27.3343 38.0182L27.3769 38.0865L27.5196 38.3304L27.6178 38.4911Z" fill="url(#paint1_linear_290_903)"/>
<path d="M27.6178 38.4919C27.5789 38.4402 27.5437 38.3866 27.5085 38.3312C27.4733 38.2757 27.4158 38.176 27.3695 38.0966L27.3287 38.0264L27.3714 38.0947L27.514 38.3386L27.6178 38.4919Z" fill="url(#paint2_linear_290_903)"/>
<path d="M27.6178 38.4918C27.5789 38.44 27.5437 38.3865 27.5085 38.3311H27.5196L27.6178 38.4918Z" fill="url(#paint3_linear_290_903)"/>
<path d="M33.9715 49.0059L33.9177 49.113L33.9715 49.0059Z" fill="url(#paint4_linear_290_903)"/>
<path d="M27.6178 38.4911C27.5789 38.4394 27.5437 38.3858 27.5085 38.3304C27.4733 38.275 27.4158 38.1752 27.3695 38.0958L27.3287 38.0256C27.3065 37.9812 27.2805 37.9369 27.2602 37.8926L27.3343 38.0182L27.3769 38.0865L27.5196 38.3304L27.6178 38.4911Z" fill="url(#paint5_linear_290_903)"/>
<path d="M41.7389 16.635L37.0195 25.0234L29.8191 37.8194C29.2466 37.3192 28.7531 36.7356 28.3553 36.0885L34.7738 24.6817L39.8841 15.5986L41.7389 16.635Z" fill="#4DA1FF" fill-opacity="0.742018"/>
<path d="M27.6178 38.492C27.5789 38.4403 27.5437 38.3867 27.5085 38.3313C27.4733 38.2759 27.4158 38.1761 27.3695 38.0967L27.5122 38.3405L27.6178 38.492Z" fill="url(#paint6_linear_290_903)"/>
<path d="M47.8535 14.8095L40.6827 27.5557L33.9084 39.6128C33.1779 39.5333 32.4637 39.3433 31.7906 39.0494L39.0966 26.0465L46.0006 13.7695L47.8535 14.8095Z" fill="#4DA1FF" fill-opacity="0.742018"/>
<path d="M54.1164 13.0771L50.4106 19.67L41.6592 35.1483C41.6592 35.1483 41.6592 35.1483 41.6592 35.1612L40.894 36.5171C39.9204 37.8736 38.5202 38.8671 36.9157 39.3398L42.0409 30.2253L52.2839 12.0205L54.1164 13.0771Z" fill="#4DA1FF" fill-opacity="0.742018"/>
<path d="M56.5834 8.97291L54.5982 7.86816L53.463 9.8957L55.4482 11.0004L56.5834 8.97291Z" fill="#4DA1FF" fill-opacity="0.742018"/>
<path d="M58.78 5.05104L56.7948 3.94629L55.6596 5.97382L57.6448 7.07857L58.78 5.05104Z" fill="#4DA1FF" fill-opacity="0.742018"/>
<path d="M60.9766 1.12818L58.9914 0.0234375L57.8562 2.05097L59.8414 3.15572L60.9766 1.12818Z" fill="#4DA1FF" fill-opacity="0.742018"/>
<path d="M50.4562 10.7053L48.471 9.60059L47.3358 11.6281L49.321 12.7329L50.4562 10.7053Z" fill="#4DA1FF" fill-opacity="0.742018"/>
<path d="M52.471 6.8997L50.493 5.78906L49.3517 7.80922L51.3297 8.91985L52.471 6.8997Z" fill="#4DA1FF" fill-opacity="0.742018"/>
<path d="M54.8459 2.86256L52.8607 1.75781L51.7255 3.78535L53.7107 4.89009L54.8459 2.86256Z" fill="#4DA1FF" fill-opacity="0.742018"/>
<path d="M44.3274 12.4378L42.3422 11.333L41.207 13.3605L43.1922 14.4653L44.3274 12.4378Z" fill="#4DA1FF" fill-opacity="0.742018"/>
<path d="M46.5221 8.51588L44.5369 7.41113L43.4017 9.43867L45.3869 10.5434L46.5221 8.51588Z" fill="#4DA1FF" fill-opacity="0.742018"/>
<path d="M48.7187 4.59596L46.7335 3.49121L45.5983 5.51874L47.5835 6.62349L48.7187 4.59596Z" fill="#4DA1FF" fill-opacity="0.742018"/>
<path d="M37.0788 43.1985C36.3988 44.5026 36.3135 44.7502 36.0504 45.2933C35.6131 46.2021 35.6057 46.3388 35.4315 46.494C35.1184 46.7674 34.7182 46.7785 34.279 46.7822C32.6985 46.7969 31.9091 46.8043 31.4607 46.7267C29.714 46.3996 28.0453 45.7452 26.5431 44.7982L26.2373 44.5839C24.7825 43.5134 23.5424 42.1799 22.5815 40.6529C20.975 38.1702 19.6483 35.5655 18.1994 32.8944C16.276 29.3532 16.3761 29.8168 14.3898 26.1315C13.8672 25.158 12.9519 23.4419 11.6104 21.1439C10.6079 19.4315 9.99278 18.4617 9.13302 17.3644C8.04721 15.9863 7.41166 15.1883 6.4852 14.5565C4.33952 13.1027 1.70652 13.2875 0.0537109 13.6071C1.74479 12.6167 3.66443 12.0802 5.62544 12.0498C6.21653 12.0498 10.1058 12.0498 13.3077 14.9759C14.126 15.726 14.8279 16.5932 15.3903 17.5491L27.3194 37.6844C27.3194 37.6844 27.3194 37.6844 27.3194 37.6973C27.338 37.7416 27.3658 37.786 27.3861 37.8321L27.4288 37.9023C27.4732 37.9818 27.5214 38.0594 27.5659 38.1369C27.6002 38.1924 27.6373 38.246 27.6771 38.2977C28.4429 39.4623 29.526 40.385 30.7992 40.9577C31.4693 41.2545 32.1789 41.453 32.906 41.547C33.3764 41.6327 33.8552 41.6631 34.3327 41.6375C34.8631 41.5898 35.386 41.4807 35.891 41.3124C37.5587 40.8303 37.9293 40.5569 38.0886 40.7268C38.3128 40.9577 37.9293 41.5636 37.0788 43.1985Z" fill="url(#paint7_linear_290_903)"/>
</g>
<defs>
<linearGradient id="paint0_linear_290_903" x1="33.9122" y1="49.0594" x2="33.9715" y2="49.0594" gradientUnits="userSpaceOnUse">
<stop stop-color="#E77166"/>
<stop offset="1" stop-color="#F69922"/>
</linearGradient>
<linearGradient id="paint1_linear_290_903" x1="27.2602" y1="38.1918" x2="27.6178" y2="38.1918" gradientUnits="userSpaceOnUse">
<stop stop-color="#E77166"/>
<stop offset="1" stop-color="#F69922"/>
</linearGradient>
<linearGradient id="paint2_linear_290_903" x1="27.3287" y1="38.2554" x2="27.6178" y2="38.2554" gradientUnits="userSpaceOnUse">
<stop stop-color="#E77166"/>
<stop offset="1" stop-color="#F69922"/>
</linearGradient>
<linearGradient id="paint3_linear_290_903" x1="27.5085" y1="38.4105" x2="27.6178" y2="38.4105" gradientUnits="userSpaceOnUse">
<stop stop-color="#E77166"/>
<stop offset="1" stop-color="#F69922"/>
</linearGradient>
<linearGradient id="paint4_linear_290_903" x1="33.9122" y1="49.0594" x2="33.9715" y2="49.0594" gradientUnits="userSpaceOnUse">
<stop stop-color="#E77166"/>
<stop offset="1" stop-color="#F69922"/>
</linearGradient>
<linearGradient id="paint5_linear_290_903" x1="27.2602" y1="38.1918" x2="27.6178" y2="38.1918" gradientUnits="userSpaceOnUse">
<stop stop-color="#E77166"/>
<stop offset="1" stop-color="#F69922"/>
</linearGradient>
<linearGradient id="paint6_linear_290_903" x1="27.3695" y1="38.2888" x2="27.6178" y2="38.2888" gradientUnits="userSpaceOnUse">
<stop stop-color="#E77166"/>
<stop offset="1" stop-color="#F69922"/>
</linearGradient>
<linearGradient id="paint7_linear_290_903" x1="8.43262" y1="8.78568" x2="31.4162" y2="48.7161" gradientUnits="userSpaceOnUse">
<stop stop-color="white" stop-opacity="0.96"/>
<stop offset="0.78" stop-color="white" stop-opacity="0"/>
</linearGradient>
<clipPath id="clip0_290_903">
<rect width="61" height="53" fill="white"/>
</clipPath>
</defs>
</svg>
